<?xml version="1.0" encoding="UTF-8" standalone="no"?>
<!DOCTYPE svg PUBLIC "-//W3C//DTD SVG 1.1//EN" "http://www.w3.org/Graphics/SVG/1.1/DTD/svg11.dtd">
<svg width="100%" height="100%" viewBox="0 0 1572 1572" version="1.1" xmlns="http://www.w3.org/2000/svg" xmlns:xlink="http://www.w3.org/1999/xlink" xml:space="preserve" xmlns:serif="http://www.serif.com/" style="fill-rule:evenodd;clip-rule:evenodd;stroke-linejoin:round;stroke-miterlimit:2;">
    <g transform="matrix(1,0,0,1,-2576.547537,-331.186777)">
        <g transform="matrix(1,0,0,1,54.298346,-83.388694)">
            <rect x="2522.249" y="414.575" width="1571.11" height="1571.11" style="fill:white;"/>
        </g>
        <g transform="matrix(1,0,0,1,463.590615,-545.941125)">
            <g transform="matrix(0.425665,0,0,0.425665,2898.512083,1662.683063)">
                <g transform="matrix(1,0,0,1,-1364.15501,-1578.609527)">
                    <clipPath id="_clip1">
                        <rect x="0" y="0" width="2728.31" height="3157.219"/>
                    </clipPath>
                    <g clip-path="url(#_clip1)">
                        <g transform="matrix(0.416667,0,0,-0.416667,-767.167487,3711.897288)">
                            <path d="M3567,8900C3232,8843 2966,8606 2863,8273C2838,8192 2836,8172 2836,8020C2837,7827 2853,7752 2924,7605C3062,7322 3319,7087 3656,6935L3755,6890L3080,6890C2324,6890 2324,6890 2185,6821C2002,6730 1884,6564 1850,6350C1842,6297 1840,6139 1842,5820C1846,5321 1847,5312 1911,5187C1978,5054 2078,4954 2205,4893L2275,4860L2280,3412C2286,1791 2279,1929 2360,1763C2458,1563 2630,1418 2845,1353C2902,1336 3018,1335 5075,1333C7430,1329 7321,1327 7460,1383C7564,1425 7631,1472 7726,1565C7807,1645 7823,1668 7868,1760C7962,1957 7954,1804 7958,3430L7961,4865L8038,4905C8094,4934 8138,4967 8201,5030C8297,5126 8338,5197 8371,5329C8390,5404 8391,5434 8388,5892C8385,6365 8384,6376 8361,6445C8303,6622 8196,6748 8038,6824C7983,6850 7918,6874 7880,6880C7836,6887 7593,6890 7137,6888C6765,6886 6460,6888 6460,6891C6460,6895 6472,6901 6488,6905C6543,6919 6701,7001 6802,7069C6959,7175 7101,7309 7201,7445C7487,7838 7455,8348 7123,8661C6856,8913 6479,8978 6130,8832C5875,8725 5592,8457 5383,8126C5329,8041 5167,7725 5119,7612L5104,7578L5076,7652C5034,7760 4930,7971 4861,8086C4605,8516 4239,8818 3885,8891C3791,8910 3653,8914 3567,8900ZM3886,8251C4108,8147 4332,7890 4492,7554C4543,7448 4631,7228 4625,7222C4616,7213 4391,7269 4250,7316C3860,7447 3594,7631 3486,7843C3397,8018 3437,8179 3590,8259C3652,8291 3659,8292 3737,8287C3801,8283 3834,8275 3886,8251ZM6621,8265C6682,8233 6716,8201 6746,8148C6771,8102 6775,8085 6775,8014C6775,7939 6772,7927 6731,7844C6602,7585 6212,7351 5720,7240C5651,7224 5594,7213 5592,7215C5587,7219 5677,7443 5725,7547C5899,7921 6146,8195 6378,8271C6448,8295 6569,8291 6621,8265Z" style="fill-rule:nonzero;"/>
                        </g>
                    </g>
                </g>
            </g>
            <g transform="matrix(1.930709,0,0,0.898454,1135.067336,722.091202)">
                <path d="M998.457,1023.359C1012.544,1023.359 1024.425,1018.01 1034.099,1007.314C1043.772,996.617 1051.145,982.893 1056.216,966.142C1061.288,949.391 1063.824,931.933 1063.824,913.769C1063.824,888.339 1059.409,865.735 1050.581,845.956C1041.001,824.967 1026.444,814.472 1006.909,814.472C983.993,814.472 963.707,825.471 946.05,847.47C928.394,869.469 915.715,903.879 908.013,950.702L928.018,971.288C943.233,989.049 955.724,1001.965 965.491,1010.038C975.822,1018.919 986.811,1023.359 998.457,1023.359ZM947.741,1676.659C926.14,1676.659 905.759,1671.21 886.6,1660.312C844.9,1636.9 814.846,1594.719 796.438,1533.769C786.859,1502.688 782.069,1467.167 782.069,1427.206C782.069,1396.529 784.605,1366.559 789.676,1337.294C794.748,1308.03 802.402,1283.912 812.639,1264.941C822.876,1245.969 835.884,1236.484 851.662,1236.484C858.424,1236.484 864.153,1241.529 868.849,1251.62C873.545,1261.712 875.893,1273.821 875.893,1287.948C875.893,1302.48 873.545,1314.791 868.849,1324.882C864.153,1334.973 858.424,1340.019 851.662,1340.019C842.271,1340.019 834.522,1344.661 828.418,1353.945C822.313,1363.228 817.758,1375.54 814.753,1390.878C811.747,1406.217 810.244,1423.17 810.244,1441.738C810.244,1505.11 823.487,1555.162 849.972,1591.894C873.264,1624.993 900.688,1641.542 932.244,1641.542C956.663,1641.542 978.452,1632.763 997.611,1615.204C1016.771,1597.646 1031.938,1574.032 1043.115,1544.364C1054.291,1514.697 1059.879,1482.102 1059.879,1446.581C1059.879,1398.951 1049.642,1359.596 1029.168,1328.515C1015.268,1307.525 994.7,1285.93 967.464,1263.73C925.388,1230.631 893.832,1194.706 872.794,1155.956C848.939,1112.363 837.011,1058.072 837.011,993.085C837.011,968.866 839.735,945.859 845.182,924.062C834.288,916.796 819.636,913.163 801.228,913.163C764.412,913.163 746.004,949.693 746.004,1022.753C746.004,1078.456 737.458,1106.308 720.365,1106.308C713.79,1106.308 708.155,1101.262 703.459,1091.171C698.764,1081.08 696.416,1068.769 696.416,1054.238C696.416,1030.422 700.172,1007.818 707.686,986.425C715.199,965.032 723.558,947.675 732.762,934.355C753.424,905.696 776.246,891.366 801.228,891.366C818.134,891.366 834.569,895.807 850.535,904.687C867.628,861.9 890.451,831.223 919.002,812.656C946.426,794.895 973.474,786.015 1000.147,786.015L1006.064,786.015C1041.941,786.015 1069.928,802.363 1090.027,835.058C1104.866,860.488 1112.379,893.385 1112.567,933.749C1111.44,972.096 1104.115,1003.782 1090.59,1028.808C1074.812,1057.063 1055.841,1071.191 1033.676,1071.191C1021.091,1071.191 1009.445,1067.962 998.738,1061.503C982.584,1052.219 961.735,1033.45 936.189,1005.195C927.736,995.507 917.405,984.407 905.196,971.894C905.196,1020.735 918.25,1061.301 944.36,1093.593C959.199,1112.564 978.264,1131.132 1001.556,1149.296C1039.687,1180.377 1068.426,1211.458 1087.773,1242.538C1116.136,1288.15 1130.318,1346.679 1130.318,1418.124C1130.318,1457.278 1125.951,1493.404 1117.216,1526.503C1108.482,1559.602 1097.071,1586.646 1082.983,1607.636C1063.824,1633.873 1041.565,1652.037 1016.207,1662.128C991.601,1671.816 968.778,1676.659 947.741,1676.659Z" style="fill:white;fill-rule:nonzero;"/>
            </g>
        </g>
    </g>
</svg>
