<?xml version="1.0" encoding="UTF-8" standalone="no"?>
<!DOCTYPE svg PUBLIC "-//W3C//DTD SVG 1.1//EN" "http://www.w3.org/Graphics/SVG/1.1/DTD/svg11.dtd">
<svg width="100%" height="100%" viewBox="0 0 1951 324" version="1.1" xmlns="http://www.w3.org/2000/svg" xmlns:xlink="http://www.w3.org/1999/xlink" xml:space="preserve" xmlns:serif="http://www.serif.com/" style="fill-rule:evenodd;clip-rule:evenodd;stroke-linejoin:round;stroke-miterlimit:2;">
    <g transform="matrix(1,0,0,1,-297.62779,-1301.734994)">
        <g transform="matrix(1,0,0,1,44.012945,346.601942)">
            <g transform="matrix(0.779851,0,0,0.362903,-289.485359,669.885713)">
                <path d="M998.457,1023.359C1012.544,1023.359 1024.425,1018.01 1034.099,1007.314C1043.772,996.617 1051.145,982.893 1056.216,966.142C1061.288,949.391 1063.824,931.933 1063.824,913.769C1063.824,888.339 1059.409,865.735 1050.581,845.956C1041.001,824.967 1026.444,814.472 1006.909,814.472C983.993,814.472 963.707,825.471 946.05,847.47C928.394,869.469 915.715,903.879 908.013,950.702L928.018,971.288C943.233,989.049 955.724,1001.965 965.491,1010.038C975.822,1018.919 986.811,1023.359 998.457,1023.359ZM947.741,1676.659C926.14,1676.659 905.759,1671.21 886.6,1660.312C844.9,1636.9 814.846,1594.719 796.438,1533.769C786.859,1502.688 782.069,1467.167 782.069,1427.206C782.069,1396.529 784.605,1366.559 789.676,1337.294C794.748,1308.03 802.402,1283.912 812.639,1264.941C822.876,1245.969 835.884,1236.484 851.662,1236.484C858.424,1236.484 864.153,1241.529 868.849,1251.62C873.545,1261.712 875.893,1273.821 875.893,1287.948C875.893,1302.48 873.545,1314.791 868.849,1324.882C864.153,1334.973 858.424,1340.019 851.662,1340.019C842.271,1340.019 834.522,1344.661 828.418,1353.945C822.313,1363.228 817.758,1375.54 814.753,1390.878C811.747,1406.217 810.244,1423.17 810.244,1441.738C810.244,1505.11 823.487,1555.162 849.972,1591.894C873.264,1624.993 900.688,1641.542 932.244,1641.542C956.663,1641.542 978.452,1632.763 997.611,1615.204C1016.771,1597.646 1031.938,1574.032 1043.115,1544.364C1054.291,1514.697 1059.879,1482.102 1059.879,1446.581C1059.879,1398.951 1049.642,1359.596 1029.168,1328.515C1015.268,1307.525 994.7,1285.93 967.464,1263.73C925.388,1230.631 893.832,1194.706 872.794,1155.956C848.939,1112.363 837.011,1058.072 837.011,993.085C837.011,968.866 839.735,945.859 845.182,924.062C834.288,916.796 819.636,913.163 801.228,913.163C764.412,913.163 746.004,949.693 746.004,1022.753C746.004,1078.456 737.458,1106.308 720.365,1106.308C713.79,1106.308 708.155,1101.262 703.459,1091.171C698.764,1081.08 696.416,1068.769 696.416,1054.238C696.416,1030.422 700.172,1007.818 707.686,986.425C715.199,965.032 723.558,947.675 732.762,934.355C753.424,905.696 776.246,891.366 801.228,891.366C818.134,891.366 834.569,895.807 850.535,904.687C867.628,861.9 890.451,831.223 919.002,812.656C946.426,794.895 973.474,786.015 1000.147,786.015L1006.064,786.015C1041.941,786.015 1069.928,802.363 1090.027,835.058C1104.866,860.488 1112.379,893.385 1112.567,933.749C1111.44,972.096 1104.115,1003.782 1090.59,1028.808C1074.812,1057.063 1055.841,1071.191 1033.676,1071.191C1021.091,1071.191 1009.445,1067.962 998.738,1061.503C982.584,1052.219 961.735,1033.45 936.189,1005.195C927.736,995.507 917.405,984.407 905.196,971.894C905.196,1020.735 918.25,1061.301 944.36,1093.593C959.199,1112.564 978.264,1131.132 1001.556,1149.296C1039.687,1180.377 1068.426,1211.458 1087.773,1242.538C1116.136,1288.15 1130.318,1346.679 1130.318,1418.124C1130.318,1457.278 1125.951,1493.404 1117.216,1526.503C1108.482,1559.602 1097.071,1586.646 1082.983,1607.636C1063.824,1633.873 1041.565,1652.037 1016.207,1662.128C991.601,1671.816 968.778,1676.659 947.741,1676.659Z" style="fill-rule:nonzero;"/>
            </g>
            <g transform="matrix(0.779851,0,0,0.362903,-289.485359,669.885713)">
                <path d="M1420.525,1581.601L1408.691,1581.601L1331.491,1059.081L1257.953,1581.601L1246.119,1581.601L1156.803,975.527C1150.041,935.969 1142.433,903.577 1133.981,878.349C1125.528,853.121 1115.103,834.049 1102.706,821.132L1233.44,821.132C1222.733,836.874 1217.38,863.111 1217.38,899.843C1217.38,916.392 1218.507,935.162 1220.761,956.152L1275.985,1369.687L1353.186,821.132L1365.019,821.132L1438.276,1369.687L1494.908,967.05C1496.035,952.519 1496.599,938.795 1496.599,925.878C1496.599,877.844 1489.085,842.929 1474.058,821.132L1562.529,821.132C1541.679,842.122 1524.492,881.275 1510.968,938.593L1420.525,1581.601Z" style="fill-rule:nonzero;"/>
            </g>
            <g transform="matrix(0.779851,0,0,0.362903,-289.485359,669.885713)">
                <path d="M1692.136,1581.601L1561.402,1581.601C1573.048,1567.07 1581.172,1544.97 1585.774,1515.302C1590.376,1485.634 1593.053,1446.985 1593.804,1399.355L1593.804,1002.773C1593.053,955.546 1590.376,916.998 1585.774,887.128C1581.172,857.258 1573.048,835.26 1561.402,821.132L1692.136,821.132C1680.491,835.26 1672.32,857.258 1667.624,887.128C1662.928,916.998 1660.204,955.546 1659.453,1002.773L1659.453,1399.355C1660.204,1446.985 1662.928,1485.634 1667.624,1515.302C1672.32,1544.97 1680.491,1567.07 1692.136,1581.601Z" style="fill-rule:nonzero;"/>
            </g>
            <g transform="matrix(0.779851,0,0,0.362903,-289.485359,669.885713)">
                <path d="M1834.141,1587.05C1814.042,1587.05 1792.159,1580.491 1768.492,1567.372C1744.825,1554.254 1725.759,1535.989 1711.296,1512.577L1712.986,1334.57C1722.19,1384.218 1735.433,1429.023 1752.714,1468.984C1764.172,1494.817 1777.32,1515.605 1792.159,1531.347C1806.998,1547.089 1821.838,1554.96 1836.677,1554.96C1858.09,1554.96 1875.934,1543.053 1890.21,1519.238C1905.237,1494.615 1912.75,1462.122 1912.75,1421.757C1912.75,1388.254 1904.486,1357.577 1887.956,1329.726C1871.238,1304.7 1850.858,1280.885 1826.815,1258.281C1812.352,1243.749 1797.982,1228.411 1783.707,1212.265C1769.431,1196.119 1756.377,1177.854 1744.543,1157.47C1732.709,1137.086 1723.176,1113.473 1715.945,1086.63C1708.713,1059.788 1705.097,1028.606 1705.097,993.085C1705.097,960.39 1710.075,930.318 1720.03,902.87C1729.985,875.422 1744.918,853.424 1764.829,836.874C1784.74,820.325 1809.534,812.05 1839.212,812.05C1860.438,812.05 1883.26,818.912 1907.679,832.636C1918.949,839.902 1929.092,843.534 1938.108,843.534C1946.561,843.534 1954.544,836.067 1962.057,821.132L1960.367,1064.531C1956.798,1022.148 1950.74,984.508 1942.194,951.611C1933.647,918.713 1922.001,892.577 1907.256,873.202C1892.511,853.827 1873.962,844.14 1851.61,844.14C1837.71,844.14 1824.843,849.69 1813.009,860.79C1801.175,871.891 1791.596,887.128 1784.27,906.503C1776.945,925.878 1773.282,948.281 1773.282,973.71C1773.282,1006.002 1777.743,1032.743 1786.665,1053.935C1795.587,1075.126 1807.139,1093.492 1821.321,1109.032C1835.503,1124.573 1850.764,1139.205 1867.106,1152.929C1901.856,1182.395 1927.777,1211.054 1944.87,1238.906C1968.913,1278.866 1980.935,1331.34 1980.935,1396.327C1980.935,1456.471 1967.599,1502.688 1940.926,1534.98C1924.772,1554.355 1906.927,1567.877 1887.392,1575.546C1867.857,1583.215 1850.107,1587.05 1834.141,1587.05Z" style="fill-rule:nonzero;"/>
            </g>
            <g transform="matrix(0.779851,0,0,0.362903,-289.485359,669.885713)">
                <path d="M2312.842,1581.601L2182.108,1581.601C2193.754,1567.07 2201.925,1544.97 2206.62,1515.302C2211.316,1485.634 2213.946,1446.985 2214.51,1399.355L2214.51,1212.265L2082.93,1212.265L2082.93,1399.355C2083.494,1446.985 2086.123,1485.634 2090.819,1515.302C2095.515,1544.97 2103.686,1567.07 2115.332,1581.601L1984.598,1581.601C1996.244,1567.07 2004.415,1544.97 2009.11,1515.302C2013.806,1485.634 2016.436,1446.985 2017,1399.355L2017,1002.773C2016.436,955.546 2013.806,916.998 2009.11,887.128C2004.415,857.258 1996.244,835.26 1984.598,821.132L2115.332,821.132C2103.686,835.26 2095.515,857.258 2090.819,887.128C2086.123,916.998 2083.494,955.546 2082.93,1002.773L2082.93,1190.468L2214.51,1190.468L2214.51,1002.773C2213.946,955.546 2211.316,916.998 2206.62,887.128C2201.925,857.258 2193.754,835.26 2182.108,821.132L2312.842,821.132C2301.196,835.26 2293.072,857.258 2288.47,887.128C2283.868,916.998 2281.191,955.546 2280.44,1002.773L2280.44,1399.355C2281.191,1446.985 2283.868,1485.634 2288.47,1515.302C2293.072,1544.97 2301.196,1567.07 2312.842,1581.601Z" style="fill-rule:nonzero;"/>
            </g>
            <g transform="matrix(0.779851,0,0,0.362903,-289.485359,669.885713)">
                <path d="M2569.239,1581.601L2324.394,1581.601C2336.04,1567.07 2344.211,1544.97 2348.907,1515.302C2353.602,1485.634 2356.326,1446.985 2357.077,1399.355L2357.077,1002.773C2356.326,955.546 2353.602,916.998 2348.907,887.128C2344.211,857.258 2336.04,835.26 2324.394,821.132L2455.128,821.132C2443.482,835.26 2435.358,857.258 2430.756,887.128C2426.154,916.998 2423.478,955.546 2422.726,1002.773L2422.726,1559.804L2484.43,1559.804C2506.783,1554.557 2525.097,1529.329 2539.373,1484.12C2553.648,1438.912 2563.604,1383.411 2569.239,1317.616L2569.239,1581.601Z" style="fill-rule:nonzero;"/>
            </g>
            <g transform="matrix(0.779851,0,0,0.362903,-289.485359,669.885713)">
                <path d="M2708.989,1581.601L2578.255,1581.601C2589.901,1567.07 2598.025,1544.97 2602.627,1515.302C2607.229,1485.634 2609.905,1446.985 2610.657,1399.355L2610.657,1002.773C2609.905,955.546 2607.229,916.998 2602.627,887.128C2598.025,857.258 2589.901,835.26 2578.255,821.132L2708.989,821.132C2697.343,835.26 2689.172,857.258 2684.476,887.128C2679.78,916.998 2677.057,955.546 2676.305,1002.773L2676.305,1399.355C2677.057,1446.985 2679.78,1485.634 2684.476,1515.302C2689.172,1544.97 2697.343,1567.07 2708.989,1581.601Z" style="fill-rule:nonzero;"/>
            </g>
            <g transform="matrix(0.779851,0,0,0.362903,-289.485359,669.885713)">
                <path d="M2849.866,1587.05C2829.768,1587.05 2807.885,1580.491 2784.217,1567.372C2760.55,1554.254 2741.485,1535.989 2727.021,1512.577L2728.712,1334.57C2737.916,1384.218 2751.158,1429.023 2768.439,1468.984C2780.085,1494.817 2793.281,1515.605 2808.026,1531.347C2822.771,1547.089 2837.563,1554.96 2852.402,1554.96C2874.003,1554.96 2891.895,1543.154 2906.076,1519.54C2920.258,1495.927 2927.724,1463.736 2928.476,1422.968C2928.476,1388.658 2920.305,1357.577 2903.963,1329.726C2887.058,1304.7 2866.584,1280.885 2842.541,1258.281C2824.508,1240.924 2806.946,1221.751 2789.853,1200.761C2743.833,1144.654 2720.823,1078.053 2720.823,1000.956C2720.823,907.714 2750.783,851.406 2810.702,832.031C2834.182,824.765 2865.175,821.132 2903.681,821.132L3198.115,821.132L3198.115,1029.413C3186.093,964.023 3170.503,913.567 3151.344,878.046C3138.571,854.635 3122.886,842.929 3104.291,842.929L3104.291,1399.355C3105.042,1446.985 3107.766,1485.634 3112.462,1515.302C3117.157,1544.97 3125.234,1567.07 3136.692,1581.601L3006.24,1581.601C3017.886,1567.07 3026.01,1544.97 3030.612,1515.302C3035.214,1485.634 3037.891,1446.985 3038.642,1399.355L3038.642,842.929L2913.825,842.929C2907.062,842.929 2898.798,843.333 2889.03,844.14C2879.263,844.947 2868.368,847.268 2856.347,851.103C2844.325,854.937 2833.243,861.497 2823.1,870.781C2812.956,880.064 2804.786,892.981 2798.587,909.531C2792.388,926.08 2789.289,947.473 2789.289,973.71C2789.289,1006.002 2793.703,1032.743 2802.531,1053.935C2811.36,1075.126 2822.865,1093.492 2837.046,1109.032C2851.228,1124.573 2866.49,1139.205 2882.832,1152.929C2917.581,1182.395 2943.503,1211.054 2960.596,1238.906C2984.639,1278.866 2996.66,1331.34 2996.66,1396.327C2996.66,1456.471 2983.324,1502.688 2956.651,1534.98C2940.497,1554.355 2922.653,1567.877 2903.118,1575.546C2883.583,1583.215 2865.832,1587.05 2849.866,1587.05Z" style="fill-rule:nonzero;"/>
            </g>
        </g>
    </g>
</svg>
